<?xml version="1.0" standalone="no"?>
<!DOCTYPE svg PUBLIC "-//W3C//DTD SVG 20010904//EN"
 "http://www.w3.org/TR/2001/REC-SVG-20010904/DTD/svg10.dtd">
<svg version="1.0" xmlns="http://www.w3.org/2000/svg"
 width="500.000000pt" height="500.000000pt" viewBox="0 0 500.000000 500.000000"
 preserveAspectRatio="xMidYMid meet">

<g transform="translate(0.000000,500.000000) scale(0.100000,-0.100000)"
fill="#000000" stroke="none">
<path d="M2190 3614 c-157 -58 -337 -124 -400 -147 l-115 -42 0 -559 0 -559
412 -164 412 -165 413 165 413 166 0 557 0 557 -295 108 c-162 60 -344 127
-403 149 -59 22 -118 40 -130 39 -12 0 -150 -48 -307 -105z m629 -60 c174 -64
349 -128 389 -142 l72 -26 -2 -520 -3 -521 -388 -156 -388 -156 -390 156 -389
156 0 521 0 521 168 61 c164 60 493 181 562 207 19 8 39 14 44 14 5 1 151 -51
325 -115z"/>
<path d="M2474 3629 c-8 -14 21 -43 35 -35 6 4 11 16 11 27 0 21 -34 27 -46 8z"/>
<path d="M2480 3525 c-10 -12 -10 -18 0 -29 16 -20 42 -8 38 17 -4 26 -21 32
-38 12z"/>
<path d="M2481 3416 c-16 -19 -6 -36 20 -36 15 0 20 6 17 22 -4 27 -21 33 -37
14z"/>
<path d="M2476 3311 c-10 -16 5 -42 23 -39 21 4 21 42 -1 46 -9 2 -19 -1 -22
-7z"/>
<path d="M2088 3187 l-208 -81 0 -182 0 -182 123 50 c67 28 163 68 212 88 l90
36 3 177 c1 97 -1 177 -5 176 -5 0 -101 -37 -215 -82z m172 -115 l0 -119 -157
-64 c-86 -35 -160 -65 -165 -67 -4 -2 -8 52 -8 121 l0 125 63 26 c168 69 234
94 250 95 15 1 17 -11 17 -117z"/>
<path d="M2742 2873 l3 -347 155 -63 c85 -35 156 -63 158 -63 1 0 2 159 2 353
l0 354 -152 57 c-84 31 -156 56 -161 56 -4 0 -6 -156 -5 -347z m228 213 l35
-13 3 -297 c1 -163 -1 -296 -5 -296 -5 0 -54 18 -110 41 l-103 41 0 287 c0
158 3 290 6 294 4 3 36 -5 73 -19 36 -14 82 -32 101 -38z"/>
<path d="M2474 3199 c-8 -14 21 -43 35 -35 6 4 11 16 11 27 0 21 -34 27 -46 8z"/>
<path d="M2480 3095 c-10 -12 -10 -18 0 -29 16 -20 42 -8 38 17 -4 26 -21 32
-38 12z"/>
<path d="M2481 2986 c-16 -19 -6 -36 20 -36 15 0 20 6 17 22 -4 27 -21 33 -37
14z"/>
<path d="M2476 2881 c-10 -16 5 -42 23 -39 21 4 21 42 -1 46 -9 2 -19 -1 -22
-7z"/>
<path d="M2474 2769 c-8 -14 21 -43 35 -35 6 4 11 16 11 27 0 21 -34 27 -46 8z"/>
<path d="M2480 2664 c-11 -12 -10 -18 3 -31 22 -23 52 0 36 28 -12 23 -22 24
-39 3z"/>
<path d="M2373 2614 c-8 -22 18 -37 36 -20 7 8 10 19 7 25 -10 16 -36 13 -43
-5z"/>
<path d="M2580 2610 c0 -16 5 -21 23 -18 12 2 22 10 22 18 0 8 -10 16 -22 18
-18 3 -23 -2 -23 -18z"/>
<path d="M2273 2574 c-3 -8 -1 -20 6 -27 14 -14 47 15 37 32 -10 16 -36 13
-43 -5z"/>
<path d="M2686 2581 c-7 -11 3 -41 14 -41 13 0 32 29 25 40 -8 12 -32 13 -39
1z"/>
<path d="M2173 2534 c-7 -18 11 -39 26 -30 17 11 13 46 -4 46 -9 0 -18 -7 -22
-16z"/>
<path d="M2064 2499 c-10 -17 23 -46 37 -32 7 7 9 19 6 27 -7 18 -33 21 -43 5z"/>
<path d="M1964 2455 c-4 -9 -2 -21 4 -27 15 -15 44 -1 40 19 -4 23 -36 29 -44
8z"/>
<path d="M1864 2415 c-4 -9 -2 -21 4 -27 15 -15 44 -1 40 19 -4 23 -36 29 -44
8z"/>
<path d="M3094 2415 c-4 -9 -2 -21 4 -27 15 -15 44 -1 40 19 -4 23 -36 29 -44
8z"/>
<path d="M1764 2375 c-7 -18 3 -35 21 -35 18 0 26 25 12 39 -15 15 -27 14 -33
-4z"/>
<path d="M3196 2374 c-4 -10 -2 -22 3 -27 14 -14 43 0 39 20 -4 24 -34 28 -42
7z"/>
<path d="M1790 1735 c0 -95 0 -95 25 -95 22 0 25 4 25 35 0 24 5 35 15 35 8 0
21 -16 29 -35 12 -27 21 -35 41 -35 25 0 25 0 10 31 -15 28 -15 34 -1 64 12
24 14 40 7 58 -12 30 -29 37 -97 37 l-54 0 0 -95z m95 51 c16 -12 17 -16 6
-30 -21 -25 -51 -20 -51 7 0 39 14 46 45 23z"/>
<path d="M2001 1804 c-31 -39 -29 -107 4 -139 35 -36 88 -34 126 4 33 33 38
75 14 120 -17 33 -33 41 -85 41 -30 0 -43 -6 -59 -26z m94 -69 c0 -40 -4 -50
-18 -53 -26 -5 -47 16 -47 48 0 47 10 61 39 58 24 -3 26 -6 26 -53z"/>
<path d="M2211 1804 c-31 -39 -29 -107 4 -139 35 -36 88 -34 126 4 33 33 38
75 14 120 -17 33 -33 41 -85 41 -30 0 -43 -6 -59 -26z m99 -44 c14 -56 -20
-99 -55 -70 -15 13 -20 56 -9 85 10 26 57 15 64 -15z"/>
<path d="M2400 1735 c0 -95 0 -95 25 -95 24 0 25 2 26 68 1 70 5 67 29 -25 8
-31 16 -43 29 -43 15 0 22 12 31 53 20 84 29 89 30 15 0 -66 1 -68 25 -68 25
0 25 0 25 95 l0 95 -40 0 c-38 0 -40 -1 -50 -42 -19 -74 -22 -75 -37 -15 l-15
57 -39 0 -39 0 0 -95z"/>
<path d="M2650 1735 l0 -95 58 0 c36 0 66 6 80 16 26 18 29 59 5 72 -16 9 -16
11 0 27 21 20 21 25 1 53 -13 19 -24 22 -80 22 l-64 0 0 -95z m99 56 c7 -5 10
-14 7 -20 -10 -16 -56 -14 -56 2 0 26 23 35 49 18z m6 -91 c0 -9 -11 -16 -27
-18 -23 -3 -28 1 -28 18 0 17 5 21 28 18 16 -2 27 -9 27 -18z"/>
<path d="M2859 1804 c-36 -38 -34 -107 4 -140 18 -15 41 -24 62 -24 21 0 44 9
62 24 23 20 28 32 28 69 0 62 -32 97 -90 97 -32 0 -47 -6 -66 -26z m99 -48 c6
-49 -6 -76 -32 -76 -27 0 -36 16 -36 64 0 40 7 48 40 44 19 -2 26 -9 28 -32z"/>
<path d="M3055 1803 c10 -16 24 -37 31 -47 11 -16 9 -25 -17 -62 -35 -52 -35
-54 -4 -54 17 0 29 9 41 32 l16 31 20 -31 c15 -24 27 -32 50 -32 l30 0 -22 33
c-44 67 -45 73 -16 117 l26 40 -24 0 c-14 0 -32 -10 -41 -22 l-16 -23 -16 23
c-10 14 -26 22 -45 22 l-30 0 17 -27z"/>
</g>
</svg>
