<?xml version="1.0" standalone="no"?>
<!DOCTYPE svg PUBLIC "-//W3C//DTD SVG 20010904//EN"
 "http://www.w3.org/TR/2001/REC-SVG-20010904/DTD/svg10.dtd">
<svg version="1.0" xmlns="http://www.w3.org/2000/svg"
 width="500.000000pt" height="500.000000pt" viewBox="0 0 500.000000 500.000000"
 preserveAspectRatio="xMidYMid meet">

<g transform="translate(0.000000,500.000000) scale(0.100000,-0.100000)"
fill="#000000" stroke="none">
<path d="M1879 3956 c-332 -122 -635 -233 -674 -247 l-70 -26 0 -899 0 -899
665 -267 c366 -147 672 -267 680 -268 8 0 315 120 683 267 l667 267 -2 900 -3
900 -225 83 c-124 46 -387 142 -585 214 -198 73 -399 146 -446 164 l-86 32
-604 -221z m1239 -103 l622 -228 -2 -843 -3 -844 -626 -251 -627 -250 -631
253 -631 252 0 842 0 842 53 17 c28 10 306 111 617 226 311 115 574 210 585
210 11 1 300 -101 643 -226z"/>
<path d="M2452 4028 c-27 -27 -6 -68 35 -68 29 0 48 33 33 60 -12 22 -49 27
-68 8z"/>
<path d="M2450 3855 c-15 -18 -6 -61 16 -69 18 -7 49 8 57 28 8 19 -20 56 -42
56 -10 0 -24 -7 -31 -15z"/>
<path d="M2457 3682 c-21 -23 -22 -46 -2 -62 19 -16 45 -9 62 17 13 19 12 24
-6 42 -26 26 -33 26 -54 3z"/>
<path d="M2452 3508 c-27 -27 -6 -68 35 -68 29 0 48 33 33 60 -12 22 -49 27
-68 8z"/>
<path d="M1820 3305 l-335 -132 -3 -297 -2 -296 37 15 c21 8 178 73 348 143
l310 128 3 287 c2 227 0 287 -10 286 -7 -1 -164 -61 -348 -134z m270 -183 l0
-198 -227 -94 c-126 -51 -243 -99 -260 -107 l-33 -13 0 202 0 203 258 102
c141 55 258 102 260 102 1 1 2 -88 2 -197z"/>
<path d="M2870 2797 l0 -563 245 -98 c134 -54 254 -100 265 -103 20 -5 20 -4
18 567 l-3 572 -35 14 c-126 49 -472 174 -480 174 -7 0 -10 -190 -10 -563z
m262 382 c90 -33 166 -64 171 -68 4 -4 6 -221 5 -483 l-3 -476 -170 68 -170
68 -3 476 c-1 262 0 476 3 476 2 0 78 -27 167 -61z"/>
<path d="M2458 3339 c-28 -16 -23 -57 8 -71 23 -11 29 -10 45 11 17 21 18 26
6 45 -17 25 -35 30 -59 15z"/>
<path d="M2452 3158 c-27 -27 -6 -68 35 -68 29 0 48 33 33 60 -12 22 -49 27
-68 8z"/>
<path d="M2450 2985 c-15 -18 -6 -61 16 -69 18 -7 49 8 57 28 8 19 -20 56 -42
56 -10 0 -24 -7 -31 -15z"/>
<path d="M2457 2812 c-21 -23 -22 -46 -2 -62 19 -16 45 -9 62 17 13 19 12 24
-6 42 -26 26 -33 26 -54 3z"/>
<path d="M2452 2638 c-7 -7 -12 -19 -12 -28 0 -40 61 -55 80 -21 13 25 13 27
-6 45 -18 19 -45 21 -62 4z"/>
<path d="M2457 2462 c-24 -26 -21 -51 8 -64 21 -9 28 -8 45 7 25 23 25 30 0
55 -25 25 -32 25 -53 2z"/>
<path d="M2286 2391 c-14 -15 -15 -24 -6 -40 21 -40 89 -17 73 25 -13 38 -41
44 -67 15z"/>
<path d="M2620 2395 c-7 -8 -10 -25 -6 -40 5 -20 13 -25 36 -25 23 0 31 5 36
25 7 29 -10 55 -36 55 -10 0 -23 -7 -30 -15z"/>
<path d="M2122 2328 c-22 -22 -14 -57 13 -64 31 -8 55 10 55 41 0 33 -44 47
-68 23z"/>
<path d="M2782 2323 c-15 -28 3 -63 32 -63 32 0 51 32 36 60 -13 25 -56 26
-68 3z"/>
<path d="M1956 2261 c-36 -40 17 -90 56 -54 23 21 23 28 -2 53 -25 25 -32 25
-54 1z"/>
<path d="M1792 2198 c-7 -7 -12 -22 -12 -35 0 -27 42 -42 65 -23 28 23 11 70
-25 70 -9 0 -21 -5 -28 -12z"/>
<path d="M1632 2134 c-29 -20 -28 -52 3 -66 30 -14 55 3 55 38 0 33 -31 47
-58 28z"/>
<path d="M1458 2063 c-33 -37 17 -90 53 -57 23 21 24 38 3 58 -20 21 -37 20
-56 -1z"/>
<path d="M3456 2067 c-11 -8 -17 -23 -14 -38 4 -33 63 -41 73 -10 7 24 -10 61
-28 61 -7 0 -21 -6 -31 -13z"/>
<path d="M1290 1995 c-26 -32 13 -81 48 -59 21 14 28 54 10 65 -20 13 -44 11
-58 -6z"/>
<path d="M3610 1990 c-15 -28 4 -60 35 -60 30 0 46 27 34 58 -11 28 -54 30
-69 2z"/>
</g>
</svg>
